<svg width="16" height="12" viewBox="0 0 16 12" fill="none" xmlns="http://www.w3.org/2000/svg">
<path fill-rule="evenodd" clip-rule="evenodd" d="M5.7376 7.0672L8.0016 8.6152L10.184 7.1096L15.076 11.936C14.9472 11.9776 14.8096 12 14.6664 12H1.3336C1.1576 12 0.989601 11.9656 0.835201 11.904L5.7376 7.0672V7.0672ZM16 3.1008V10.6664C16 10.864 15.9568 11.0512 15.88 11.22L11.0848 6.4888L16 3.1008ZM7.54882e-07 3.1432L4.8336 6.4488L0.0848008 11.1352C0.0285574 10.9853 -0.000169787 10.8265 7.54882e-07 10.6664V3.144V3.1432ZM14.6664 0C15.4024 0 16 0.5968 16 1.3336V1.8024L7.9984 7.3184L7.54882e-07 1.848V1.3336C7.54882e-07 0.5976 0.596801 0 1.3336 0H14.6664V0Z" fill="#999999"/>
</svg>
