<svg width="1442" height="51" viewBox="0 0 1442 51" fill="none" xmlns="http://www.w3.org/2000/svg">
<g clip-path="url(#clip0_1637_26)">
<path d="M0 28.4673L114.659 38L318.942 11.2515L424.851 32.0026L631.876 2.00348L739.025 35.9931L1023.92 1L1221.99 32.0025L1334.85 13.5428L1442 28.4673" stroke="#E3BF8A"/>
<path d="M0 10.5L115.54 1L314.609 36.12L425.409 6.99732L638.721 36.12L739.256 3.00685L1023.85 38L1209.92 7.02056L1325.46 38L1442 10.0309" stroke="#E3BF8A"/>
<path d="M0 29.5L120.167 21.4998L325.451 38.1791L427.593 21.4998L632.878 32.6193L747.036 20L1043.45 38.1791L1218.69 21.4998L1321.33 35L1442 29.5V51H1131.07H0V29.5Z" fill="#181818"/>
</g>
<defs>
<clipPath id="clip0_1637_26">
<rect width="1442" height="51" fill="white"/>
</clipPath>
</defs>
</svg>
