<svg width="14" height="14" viewBox="0 0 14 14" fill="none" xmlns="http://www.w3.org/2000/svg">
<path d="M1.17702 0.64071L13.461 6.69351C13.528 6.72652 13.5844 6.77762 13.6239 6.84103C13.6633 6.90445 13.6842 6.97763 13.6842 7.05231C13.6842 7.12699 13.6633 7.20017 13.6239 7.26359C13.5844 7.327 13.528 7.3781 13.461 7.41111L1.17622 13.4639C1.1074 13.4977 1.03031 13.511 0.95413 13.5023C0.877954 13.4935 0.805903 13.463 0.746557 13.4145C0.687212 13.3659 0.643073 13.3013 0.619397 13.2284C0.595721 13.1555 0.593507 13.0773 0.613018 13.0031L1.82982 8.40711C1.84954 8.33274 1.8903 8.26564 1.9472 8.21385C2.0041 8.16206 2.07473 8.12777 2.15062 8.11511L7.65542 7.19751C7.68822 7.19208 7.71915 7.17855 7.74541 7.15816C7.77167 7.13776 7.79243 7.11115 7.80582 7.08071L7.82022 7.03271C7.82769 6.98822 7.8199 6.94251 7.79811 6.90301C7.77633 6.86351 7.74183 6.83253 7.70022 6.81511L7.65542 6.80231L2.12022 5.87991C2.04447 5.86711 1.97401 5.83276 1.91727 5.78098C1.86052 5.7292 1.81989 5.66217 1.80022 5.58791L0.613018 1.10231C0.593304 1.0281 0.595365 0.949787 0.618955 0.876718C0.642545 0.80365 0.686666 0.738914 0.746051 0.690242C0.805436 0.64157 0.877574 0.611019 0.953853 0.602235C1.03013 0.593452 1.10733 0.606809 1.17622 0.64071H1.17702Z" fill="#181818"/>
</svg>
