<svg width="1440" height="70" viewBox="0 0 1440 70" fill="none" xmlns="http://www.w3.org/2000/svg">
<path d="M1320 21.9708L1440 7.15328V70H0V7.15328L115.292 28.5L267.232 21.9708L396 0L614.634 21.9708L807 7.15328L1012 21.9708L1114 0L1320 21.9708Z" fill="white"/>
<path d="M0.5 50L117.382 36.0075L322.54 59.6553L425.338 36.0076L630.977 56.7602L824 34.0026L1009 59.5L1172 30.5001L1330.5 25L1439.5 50" stroke="#E3BF8A" stroke-linecap="round"/>
<path d="M0.5 34L117.382 47.9926L322.54 24.3448L425.338 47.9925L630.977 27.2399L824 49.9975L1020.89 22.0001L1172 53.5L1324 62L1439.5 34" stroke="#E3BF8A" stroke-linecap="round"/>
</svg>
