<svg width="5762" height="109" viewBox="0 0 5762 109" fill="none" xmlns="http://www.w3.org/2000/svg">
<path d="M0.999999 32.9999L121 44.9999L303.5 2.49988L430 43.0011L645.5 6.99988L736.5 47.9999L1008.5 0.999809L1219.5 42.0011L1325.08 11.4699L1441 32.9999" stroke="#E3BF8A"/>
<path d="M0.999999 20L121 8.00001L274.5 66.5L426.5 10.0012L657 52.0001L789 10.0012L1025.5 66.5L1223 10.0012L1328 52.0001L1441 20" stroke="#E3BF8A"/>
<path d="M1 40L121 34L326 59.8955L428 34L633 51.2637L736 34L1043 59.8955L1218 34L1325 46.6318L1441 40V108.001H1122.5H1V40Z" fill="#181818"/>
<path d="M1441 32.9999L1561 44.9999L1743.5 2.49988L1870 43.0011L2085.5 6.99988L2176.5 47.9999L2448.5 0.999809L2659.5 42.0011L2765.08 11.4699L2881 32.9999" stroke="#E3BF8A"/>
<path d="M1441 20L1561 8.00001L1714.5 66.5L1866.5 10.0012L2097 52.0001L2229 10.0012L2465.5 66.5L2663 10.0012L2768 52.0001L2881 20" stroke="#E3BF8A"/>
<path d="M1441 40L1561 34L1766 59.8955L1868 34L2073 51.2637L2176 34L2483 59.8955L2658 34L2765 46.6318L2881 40V108.001H2562.5H1441V40Z" fill="#181818"/>
<path d="M1441 40L1561 34L1766 59.8955L1868 34L2073 51.2637L2176 34L2483 59.8955L2658 34L2765 46.6318L2881 40V108.001H2562.5H1441V40Z" fill="#181818"/>
<path d="M2881 32.9999L3001 44.9999L3183.5 2.49988L3310 43.0011L3525.5 6.99988L3616.5 47.9999L3888.5 0.999809L4099.5 42.0011L4205.08 11.4699L4321 32.9999" stroke="#E3BF8A"/>
<path d="M2881 20L3001 8.00001L3154.5 66.5L3306.5 10.0012L3537 52.0001L3669 10.0012L3905.5 66.5L4103 10.0012L4208 52.0001L4321 20" stroke="#E3BF8A"/>
<path d="M2881 40L3001 34L3206 59.8955L3308 34L3513 51.2637L3616 34L3923 59.8955L4098 34L4205 46.6318L4321 40V108.001H4002.5H2881V40Z" fill="#181818"/>
<path d="M4321 32.9999L4441 44.9999L4623.5 2.49988L4750 43.0011L4965.5 6.99988L5056.5 47.9999L5328.5 0.999809L5539.5 42.0011L5645.08 11.4699L5761 32.9999" stroke="#E3BF8A"/>
<path d="M4321 20L4441 8.00001L4594.5 66.5L4746.5 10.0012L4977 52.0001L5109 10.0012L5345.5 66.5L5543 10.0012L5648 52.0001L5761 20" stroke="#E3BF8A"/>
<path d="M4321 40L4441 34L4646 59.8955L4748 34L4953 51.2637L5056 34L5363 59.8955L5538 34L5645 46.6318L5761 40V108.001H5442.5H4321V40Z" fill="#181818"/>
<path d="M4321 40L4441 34L4646 59.8955L4748 34L4953 51.2637L5056 34L5363 59.8955L5538 34L5645 46.6318L5761 40V108.001H5442.5H4321V40Z" fill="#181818"/>
</svg>
